# xmcd
#
# Track frame offsets:
#	150
#	20660
#	39752
#	65402
#
# Disc length: 1143 seconds
#
# Revision: 3
# Processed by: cddbd v1.5PL3 Copyright (c) Steve Scherf et al.
# Submitted via: dBpowerAMP V4.0
#
DISCID=29047504
DTITLE=Faye Wong - Separate ways
DYEAR=2001
DGENRE=Pop
TTITLE0=Separate ways
TTITLE1=128 beat mix
TTITLE2=Eyes on me
TTITLE3=instrumental
EXTD=
EXTT0=
EXTT1=
EXTT2=
EXTT3=
PLAYORDER=
